<?xml version="1.0" encoding="utf-8"?>
<!-- Generator: Adobe Illustrator 26.2.1, SVG Export Plug-In . SVG Version: 6.00 Build 0)  -->
<svg version="1.1" id="Layer_1" xmlns="http://www.w3.org/2000/svg" xmlns:xlink="http://www.w3.org/1999/xlink" x="0px" y="0px"
	 viewBox="0 0 50 50" style="enable-background:new 0 0 50 50;" xml:space="preserve">
<style type="text/css">
	.st0{fill:#E9F5EE;}
	.st1{fill:#FFFFFF;}
	.st2{fill:#A3CE44;}
	.st3{fill:#3F4643;}
</style>
<path class="st0" d="M12.1,31.7c2.2,1.5,3.8,3.6,4.7,6.1c0.8,2.4,2.3,4.6,4.2,6.2c6.1,5.2,15.3,4.6,20.5-1.5S46.1,27.2,40,22
	c-1.9-1.6-3.2-3.9-3.8-6.3C35.1,9.9,30.7,5.3,25,3.8C16.7,1.6,8.1,6.6,5.9,14.9C4.2,21.3,6.7,28,12.1,31.7z"/>
<path class="st1" d="M36.4,17.6c0-6.3-5.1-11.4-11.4-11.4c-0.8,0-1.7,0.1-2.5,0.3c-6.1,1.4-10,7.4-8.6,13.6c0.4,1.8,1.2,3.4,2.4,4.8
	c2.5,3,3.8,6.7,3.8,10.6v0.6h9.6v-0.4c0.1-4.1,1.6-8,4.2-11.1C35.5,22.7,36.4,20.2,36.4,17.6z"/>
<path class="st2" d="M9.2,28.1c-0.1,0-0.2,0-0.2-0.1c-1.1-0.9-2.4-1.4-3.7-1.6c-0.1,0-0.3-0.1-0.3-0.2c-0.1-0.1,0-0.3,0-0.4
	c0.9-1.1,1.4-2.3,1.6-3.7c0-0.1,0.1-0.3,0.2-0.3c0.1-0.1,0.3,0,0.4,0.1c1.1,0.9,2.4,1.4,3.7,1.6c0.1,0,0.3,0.1,0.3,0.2
	c0.1,0.1,0,0.3-0.1,0.4c-0.9,1.1-1.4,2.3-1.6,3.7c0,0.1-0.1,0.3-0.2,0.3C9.3,28.1,9.3,28.1,9.2,28.1z M6,25.9c1.1,0.2,2.1,0.6,3,1.2
	c0.2-1.1,0.6-2.1,1.2-3c-1.1-0.2-2.1-0.6-3-1.2C7,23.9,6.6,25,6,25.9z"/>
<circle class="st2" cx="15" cy="38.1" r="0.8"/>
<circle class="st2" cx="40.8" cy="16.9" r="1.4"/>
<path class="st3" d="M31.6,28.5c-0.1,0-0.1,0-0.2,0c-0.2-0.1-0.3-0.3-0.2-0.5c0,0,0,0,0,0c0.6-1.3,1.4-2.4,2.3-3.5
	c1.6-1.9,2.4-4.4,2.4-6.9c0-3.3-1.5-6.5-4.1-8.6c-2.6-2.1-6-2.9-9.3-2.2c-1.4,0.3-2.7,0.9-3.9,1.7c-0.2,0.1-0.4,0.1-0.5-0.1
	c0,0,0,0,0,0C18,8.3,18.1,8,18.2,7.9c0,0,0,0,0,0c1.3-0.9,2.7-1.5,4.2-1.8c3.5-0.8,7.2,0.1,10,2.3c5,4.1,5.8,11.4,1.8,16.5
	c-0.9,1.1-1.6,2.2-2.2,3.4C31.9,28.5,31.8,28.5,31.6,28.5z"/>
<path class="st3" d="M29.7,36.5h-9.6c-0.2,0-0.4-0.2-0.4-0.4v-0.6c0-3.8-1.3-7.5-3.7-10.4c-2.4-2.8-3.3-6.7-2.4-10.3
	c0.3-1.4,0.9-2.8,1.8-4c0.1-0.2,0.3-0.2,0.5-0.1c0,0,0,0,0,0c0.2,0.1,0.2,0.3,0.1,0.5c-0.3,0.4-0.5,0.8-0.7,1.2
	c-0.4,0.8-0.8,1.7-1,2.6c-0.8,3.4,0,7,2.3,9.6c2.5,3,3.9,6.9,3.9,10.8v0.2h8.9c0-1.5,0.2-3,0.7-4.5c0-0.2,0.2-0.4,0.4-0.3
	c0.2,0,0.4,0.2,0.3,0.4c0,0,0,0.1,0,0.1c-0.4,1.4-0.6,2.8-0.6,4.3v0.4C30.1,36.3,29.9,36.5,29.7,36.5C29.7,36.5,29.7,36.5,29.7,36.5
	z"/>
<path class="st3" d="M30.1,38.5H19.9c-0.2,0-0.4-0.2-0.4-0.4l0,0c0-0.2,0.2-0.4,0.4-0.4c0,0,0,0,0,0h10.3c0.2,0,0.4,0.2,0.4,0.4
	c0,0,0,0,0,0C30.5,38.3,30.3,38.5,30.1,38.5L30.1,38.5z"/>
<path class="st1" d="M29.1,39.6c0,2.3-1.8,4.1-4.1,4.1s-4.1-1.8-4.1-4.1H29.1z"/>
<path class="st2" d="M28.1,39.6c0.1,2.1-1.5,4-3.6,4.1c-2.1-0.1-3.8-2-3.6-4.1H28.1z"/>
<path class="st3" d="M25,44.1c-2.5,0-4.5-2-4.5-4.5v-0.4h6.7c0.2,0,0.4,0.1,0.4,0.3c0,0.2-0.1,0.4-0.3,0.4c0,0-0.1,0-0.1,0h-5.9
	c0.2,2.1,2.1,3.6,4.1,3.3c1.9-0.2,3.4-1.8,3.4-3.7c0-0.2,0.2-0.4,0.4-0.4l0,0c0.2,0,0.4,0.2,0.4,0.4c0,0,0,0,0,0
	C29.5,42.1,27.5,44.1,25,44.1z"/>
<path class="st3" d="M23.7,33.5c-0.2,0-0.4-0.2-0.4-0.4l0,0v-8.9h-2.3c-1.4-0.1-2.5-1.3-2.4-2.7c0.1-1.3,1.1-2.3,2.4-2.4h0.5
	c1.4,0,2.5,1.1,2.5,2.5v1.8h1.8c0.2,0,0.4,0.2,0.4,0.4c0,0.2-0.2,0.4-0.4,0.4c0,0,0,0,0,0h-1.8v8.9C24.1,33.3,23.9,33.5,23.7,33.5z
	 M21.1,19.9c-1,0.1-1.7,0.9-1.6,1.9c0.1,0.9,0.8,1.6,1.6,1.6h2.3v-1.8c0-1-0.8-1.8-1.8-1.8L21.1,19.9z"/>
<path class="st3" d="M26.3,33.5c-0.2,0-0.4-0.2-0.4-0.4l0,0v-8.9h-1.8c-0.2,0-0.4-0.2-0.4-0.4c0,0,0,0,0,0c0-0.2,0.2-0.4,0.4-0.4
	h1.8v-1.8c0-1.4,1.1-2.5,2.5-2.5c0,0,0,0,0,0h0.5c1.4,0.1,2.5,1.3,2.4,2.7c-0.1,1.3-1.1,2.3-2.4,2.4h-2.3v8.9
	C26.7,33.3,26.5,33.5,26.3,33.5z M26.7,23.4h2.3c1-0.1,1.7-0.9,1.6-1.9c-0.1-0.9-0.8-1.6-1.6-1.6h-0.5c-1,0-1.8,0.8-1.8,1.8v0V23.4z
	"/>
<path class="st2" d="M33.5,14.4c-0.2,0-0.3-0.1-0.3-0.2c-1-2.8-3.5-4.9-6.4-5.4c-0.2,0-0.3-0.2-0.3-0.4c0-0.2,0.2-0.3,0.4-0.3
	c0,0,0,0,0,0c3.2,0.6,5.9,2.8,7,5.9c0.1,0.2,0,0.4-0.2,0.5c0,0,0,0,0,0L33.5,14.4z"/>
</svg>
