<?xml version="1.0" encoding="utf-8"?>
<!-- Generator: Adobe Illustrator 26.2.1, SVG Export Plug-In . SVG Version: 6.00 Build 0)  -->
<svg version="1.1" id="Layer_1" xmlns="http://www.w3.org/2000/svg" xmlns:xlink="http://www.w3.org/1999/xlink" x="0px" y="0px"
	 viewBox="0 0 50 50" style="enable-background:new 0 0 50 50;" xml:space="preserve">
<style type="text/css">
	.st0{opacity:1.000000e-02;}
	.st1{fill:#FFFFFF;}
	.st2{fill:#E9F5EE;}
	.st3{fill:#A3CE44;}
	.st4{fill:#3F4643;}
	.st5{opacity:0.3;fill:#A3CE44;}
</style>
<g class="st0">
	<rect x="0.1" y="0" class="st1" width="49.7" height="49.9"/>
</g>
<path class="st2" d="M44.6,14.7c-2.2-8.3-10.7-13.3-19-11.2C19.8,5,15.4,9.6,14.2,15.4c-0.5,2.5-1.9,4.7-3.8,6.4
	C4.3,27,3.6,36.2,8.9,42.3s14.4,6.8,20.5,1.5c2-1.7,3.4-3.8,4.3-6.3c0.9-2.5,2.5-4.6,4.7-6.1C43.7,27.8,46.2,21,44.6,14.7z"/>
<path class="st3" d="M45.4,10.1c-0.1,0-0.2,0-0.2-0.1c-1.1-0.9-2.3-1.4-3.7-1.6c-0.1,0-0.3-0.1-0.3-0.2c-0.1-0.1,0-0.3,0.1-0.4
	c0.9-1.1,1.4-2.3,1.6-3.7c0-0.1,0.1-0.3,0.2-0.3c0.1-0.1,0.3,0,0.4,0c1.1,0.9,2.3,1.4,3.7,1.6c0.1,0,0.3,0.1,0.3,0.2
	c0.1,0.1,0,0.3-0.1,0.4c-0.9,1.1-1.4,2.3-1.6,3.7c0,0.1-0.1,0.2-0.2,0.3L45.4,10.1z M42.2,7.8c1.1,0.2,2.1,0.6,3,1.2
	C45.4,8,45.8,7,46.4,6.1c-1.1-0.2-2.1-0.6-3-1.2C43.2,6,42.8,7,42.2,7.8z"/>
<path class="st1" d="M34.2,22.9l-0.2-10.5l-6.8-6.2l-5-4.8h-20v42.2h22.9c-4.4-5.5-3.5-13.6,2.1-18C29.2,24,31.6,23,34.2,22.9z"/>
<path class="st4" d="M25.1,43.9H14.4c-0.2,0-0.4-0.2-0.4-0.4c0,0,0,0,0,0c0-0.2,0.2-0.4,0.4-0.4h0h9.9c-1.5-2.2-2.4-4.9-2.3-7.6
	c0-6.8,5.1-12.4,11.8-13.1l-0.2-10L27,6.4l-4.9-4.7H10.6c-0.2,0-0.3-0.2-0.3-0.4c0-0.2,0.2-0.3,0.3-0.3h11.6c0.1,0,0.2,0,0.3,0.1
	l5,4.8l6.8,6.2c0.1,0.1,0.1,0.2,0.1,0.3l0.2,10.5c0,0.2-0.1,0.4-0.3,0.4c-6.8,0.5-12,6.4-11.5,13.3c0.2,2.5,1.1,4.9,2.6,6.8
	c0.1,0.1,0.1,0.3,0,0.4C25.4,43.8,25.2,43.9,25.1,43.9z"/>
<path class="st4" d="M11.2,43.9h-9c-0.2,0-0.4-0.2-0.4-0.4c0,0,0,0,0,0V1.4C1.9,1.2,2,1,2.2,1h5.2c0.2,0,0.4,0.1,0.4,0.3
	c0,0.2-0.1,0.4-0.3,0.4c0,0-0.1,0-0.1,0H2.6v41.4h8.6c0.2,0,0.4,0.2,0.4,0.4l0,0C11.6,43.7,11.5,43.9,11.2,43.9
	C11.3,43.9,11.3,43.9,11.2,43.9z"/>
<path class="st5" d="M33.5,43.5l0.3-22.2c-7.3,0.4-13,6.4-13.1,13.7c0.1,2.9,0.9,5.7,2.4,8.2"/>
<circle class="st1" cx="35.1" cy="35.6" r="12.8"/>
<path class="st3" d="M34.7,22.8c-7,0.1-12.5,5.8-12.4,12.8c-0.1,7,5.4,12.7,12.4,12.8c0,0,0,0,0,0c6.8,0,12.2-5.7,12.2-12.8
	S41.5,22.8,34.7,22.8z"/>
<path class="st4" d="M35.1,48.8c-1.5,0-3-0.3-4.5-0.8c-0.2-0.1-0.3-0.3-0.2-0.5c0.1-0.2,0.3-0.3,0.5-0.2c6.5,2.3,13.6-1.1,15.9-7.5
	c1.4-3.9,0.7-8.3-1.8-11.7c-0.1-0.2-0.1-0.4,0.1-0.5c0,0,0,0,0,0c0.2-0.1,0.4-0.1,0.5,0.1c4.4,5.8,3.2,14.1-2.6,18.5
	C40.7,47.8,38,48.8,35.1,48.8z"/>
<path class="st4" d="M28.6,47c-0.1,0-0.1,0-0.2-0.1c-6.2-3.8-8.1-11.9-4.3-18.1s11.9-8.1,18.1-4.3c0.5,0.3,0.9,0.6,1.3,0.9
	c0.2,0.1,0.2,0.4,0.1,0.5c-0.1,0.2-0.4,0.2-0.5,0.1c0,0,0,0,0,0c-5.3-4.4-13.1-3.7-17.5,1.6s-3.7,13.1,1.6,17.5
	c0.5,0.4,1.1,0.8,1.6,1.1c0.2,0.1,0.2,0.3,0.1,0.5C28.8,46.9,28.7,47,28.6,47L28.6,47z"/>
<path class="st1" d="M35.1,37.3c-0.1,0-0.1,0-0.2,0c-0.1-0.1-0.2-0.2-0.2-0.3V26.4c0-0.2,0.1-0.4,0.3-0.4c0.2,0,0.4,0.1,0.4,0.3
	c0,0,0,0.1,0,0.1v9.9l5-3.1c0.2-0.1,0.4,0,0.5,0.2c0.1,0.2,0,0.3-0.1,0.5l-5.6,3.5C35.3,37.3,35.2,37.3,35.1,37.3z"/>
<path class="st4" d="M24,17.2H6c-0.2,0-0.4-0.1-0.4-0.3c0-0.2,0.1-0.4,0.3-0.4c0,0,0.1,0,0.1,0h18c0.2,0,0.4,0.1,0.4,0.3
	C24.5,17,24.3,17.2,24,17.2C24.1,17.2,24,17.2,24,17.2L24,17.2z"/>
<path class="st4" d="M24,23.2H6c-0.2,0-0.4-0.2-0.4-0.4c0-0.2,0.2-0.4,0.4-0.4c0,0,0,0,0,0h18c0.2,0,0.4,0.2,0.4,0.4c0,0,0,0,0,0
	C24.4,23,24.2,23.2,24,23.2z"/>
<path class="st4" d="M17.2,29.2H6c-0.2,0-0.4-0.1-0.4-0.3c0-0.2,0.1-0.4,0.3-0.4c0,0,0.1,0,0.1,0h11.2c0.2,0,0.3,0.2,0.3,0.4
	C17.5,29.1,17.4,29.2,17.2,29.2L17.2,29.2z"/>
<path class="st5" d="M21.9,1.7l-1.2,10.9c-0.1,0.5,0.3,1,0.9,1.1c0.1,0,0.2,0,0.3,0l12-1l0.2-0.8L21.9,1.7z"/>
<polygon class="st1" points="22.3,1.6 22.4,12.2 34,12.3 "/>
<path class="st4" d="M34,12.6L34,12.6l-11.6-0.1c-0.2,0-0.4-0.2-0.4-0.4c0,0,0,0,0,0L21.9,1.6c0-0.1,0.1-0.3,0.2-0.4
	c0.1-0.1,0.3,0,0.4,0.1L34.2,12c0.1,0.1,0.2,0.4,0,0.5C34.1,12.6,34.1,12.6,34,12.6L34,12.6z M22.8,11.8L33,11.9L22.7,2.5L22.8,11.8
	z"/>
<circle class="st3" cx="7.6" cy="47" r="0.8"/>
<circle class="st3" cx="40.6" cy="18" r="1.4"/>
</svg>
