<?xml version="1.0" encoding="utf-8"?>
<!-- Generator: Adobe Illustrator 26.2.1, SVG Export Plug-In . SVG Version: 6.00 Build 0)  -->
<svg version="1.1" id="Layer_1" xmlns="http://www.w3.org/2000/svg" xmlns:xlink="http://www.w3.org/1999/xlink" x="0px" y="0px"
	 viewBox="0 0 50 50" style="enable-background:new 0 0 50 50;" xml:space="preserve">
<style type="text/css">
	.st0{opacity:1.000000e-02;}
	.st1{fill:#FFFFFF;}
	.st2{fill:#E9F5EE;}
	.st3{fill:#006748;}
	.st4{fill:#3F4643;}
	.st5{fill:#DFF4F0;}
	.st6{fill:none;}
	.st7{opacity:0.3;}
</style>
<g class="st0">
	<rect x="0.1" y="-0.2" class="st1" width="49.7" height="49.9"/>
</g>
<path class="st2" d="M44.6,13.6C42.1,4.5,32.7-0.8,23.7,1.7c-6.1,1.7-10.8,6.6-12.1,12.7c-0.6,2.7-2,5.1-4.1,6.9
	C0.8,27,0,36.9,5.7,43.6S21.4,51,28,45.3c2.1-1.8,3.8-4.2,4.7-6.9c1-2.7,2.8-5,5.1-6.6C43.7,27.8,46.4,20.5,44.6,13.6z"/>
<circle class="st3" cx="14.9" cy="43.7" r="1.5"/>
<path class="st1" d="M24,9.7l-16.8,0c0,2.5-2,4.6-4.6,4.6v18.1c2.5,0,4.6,2,4.6,4.6c0,0,0,0,0,0h7.6h24.5c0-2.5,2-4.6,4.6-4.6
	c0,0,0,0,0,0V14.2c-2.5,0-4.6-2.1-4.6-4.6c0,0,0,0,0,0H26.5"/>
<path class="st4" d="M7.4,37.6c-0.2,0-0.4-0.2-0.4-0.4c0,0,0,0,0,0c0-2.3-1.9-4.2-4.2-4.2c0,0,0,0,0,0l0,0c-0.1,0-0.2,0-0.3-0.1
	c-0.1-0.1-0.1-0.2-0.1-0.3V14.6c0-0.1,0-0.2,0.1-0.3c0.1-0.1,0.2-0.1,0.3-0.1C5.1,14.2,7,12.3,7,10c0,0,0,0,0,0c0-0.1,0-0.2,0.1-0.3
	c0.1-0.1,0.2-0.1,0.3-0.1h16.8l0,0c0.2,0,0.4,0.2,0.4,0.4c0,0.2-0.2,0.4-0.4,0.4c0,0,0,0,0,0H7.7c-0.1,1.2-0.6,2.3-1.4,3.1
	c-0.8,0.9-1.9,1.4-3.1,1.5v17.3c1.2,0.1,2.3,0.6,3.1,1.4c0.8,0.8,1.4,1.9,1.4,3.1h31.4c0.2-2.4,2.1-4.4,4.6-4.6V15
	c-2.4-0.2-4.4-2.1-4.6-4.6H26.6c-0.2,0-0.4-0.1-0.4-0.3c0-0.2,0.1-0.4,0.3-0.4c0,0,0.1,0,0.1,0h12.8c0.2,0,0.4,0.2,0.4,0.4
	c0,2.3,1.9,4.2,4.2,4.2l0,0c0.2,0,0.4,0.2,0.4,0.4c0,0,0,0,0,0v18.1c0,0.1,0,0.2-0.1,0.3C44.2,33,44.1,33,44,33
	c-2.3,0-4.2,1.9-4.2,4.2c0,0,0,0,0,0c0,0.1,0,0.2-0.1,0.3c-0.1,0.1-0.2,0.1-0.3,0.1L7.4,37.6L7.4,37.6z"/>
<path class="st5" d="M10.8,14.5h25.3c0.8,0,1.4,0.6,1.4,1.4v15.6c0,0.8-0.6,1.4-1.4,1.4H10.8c-0.8,0-1.4-0.6-1.4-1.4V15.8
	C9.4,15.1,10,14.5,10.8,14.5z"/>
<path class="st4" d="M10.8,33.2c-1,0-1.8-0.8-1.8-1.7c0,0,0,0,0,0V15.9c0-1,0.8-1.7,1.7-1.7c0,0,0,0,0,0h25.3l0,0
	c1,0,1.8,0.8,1.8,1.8v15.5c0,0.9-0.7,1.7-1.7,1.7c0,0,0,0-0.1,0L10.8,33.2z M36.1,14.8L36.1,14.8H10.8c-0.6,0-1,0.4-1,1v15.5
	c0,0.6,0.4,1,1,1h25.3c0.6,0,1-0.4,1-1l0,0V15.8C37.1,15.3,36.6,14.8,36.1,14.8z"/>
<line class="st6" x1="15.8" y1="20.9" x2="31" y2="20.9"/>
<path class="st4" d="M15.8,21.3c-0.2,0-0.4-0.2-0.4-0.4c0,0,0,0,0,0c0-0.2,0.2-0.4,0.4-0.4H31c0.2,0,0.3,0.2,0.3,0.4
	c0,0.2-0.2,0.3-0.3,0.3H15.8z"/>
<line class="st6" x1="19.4" y1="26.4" x2="27.4" y2="26.4"/>
<path class="st4" d="M19.4,26.7c-0.2,0-0.4-0.2-0.4-0.4v0c0-0.2,0.2-0.4,0.4-0.4h8c0.2,0,0.3,0.2,0.3,0.4c0,0.2-0.2,0.3-0.3,0.3
	H19.4z"/>
<path class="st3" d="M45.3,10c-0.1,0-0.2,0-0.2-0.1C44,9,42.7,8.5,41.4,8.3c-0.1,0-0.3-0.1-0.3-0.2c-0.1-0.1,0-0.3,0.1-0.4
	C42,6.6,42.5,5.4,42.7,4c0-0.2,0.2-0.4,0.4-0.3c0.1,0,0.2,0,0.2,0.1c1.1,0.9,2.3,1.4,3.7,1.6c0.1,0,0.3,0.1,0.3,0.2
	c0.1,0.1,0,0.3-0.1,0.4c-0.9,1.1-1.4,2.3-1.6,3.7c0,0.1-0.1,0.3-0.2,0.3C45.4,10,45.4,10,45.3,10z M42.1,7.7c1.1,0.2,2.1,0.6,3,1.2
	c0.2-1.1,0.6-2.1,1.2-3c-1.1-0.2-2.1-0.6-3-1.2C43.1,5.8,42.7,6.8,42.1,7.7z"/>
<g class="st7">
	<path class="st3" d="M44.5,27.2c-2.2-1.9-5-3-7.9-3c-7.7-0.1-13,6.2-13,13.3"/>
</g>
<circle class="st1" cx="36.6" cy="37" r="11.4"/>
<ellipse class="st3" cx="36.1" cy="37" rx="11" ry="11.4"/>
<path class="st4" d="M36.6,48.8c-1.6,0-3.2-0.3-4.7-1c-0.2-0.1-0.3-0.3-0.2-0.5c0,0,0,0,0,0c0.1-0.2,0.3-0.3,0.5-0.2
	c5.6,2.4,12.1-0.2,14.5-5.8c1.2-2.8,1.2-6,0-8.8c-0.1-0.2,0-0.4,0.2-0.5c0.2-0.1,0.4,0,0.5,0.2c0.7,1.5,1,3.1,1,4.8
	C48.3,43.5,43.1,48.8,36.6,48.8z"/>
<path class="st4" d="M29.3,46.2c-0.1,0-0.2,0-0.2-0.1c-5-4.2-5.7-11.6-1.6-16.6s11.6-5.7,16.6-1.6c0.4,0.3,0.8,0.7,1.1,1.1
	c0.1,0.1,0.1,0.4,0,0.5c-0.1,0.1-0.4,0.1-0.5,0c0,0,0,0,0,0c-4.1-4.5-11.1-4.9-15.6-0.8s-4.9,11.1-0.8,15.6c0.4,0.4,0.8,0.9,1.3,1.2
	c0.1,0.1,0.1,0.4,0,0.5C29.5,46.1,29.4,46.2,29.3,46.2z"/>
<path class="st1" d="M36.7,43.4c-0.2,0-0.4-0.2-0.4-0.4V30.9c0-0.2,0.1-0.4,0.3-0.4c0.2,0,0.4,0.1,0.4,0.3c0,0,0,0.1,0,0.1v12.2
	C37.1,43.3,36.9,43.4,36.7,43.4z"/>
<path class="st1" d="M42.8,37.3H30.6c-0.2,0-0.4-0.2-0.4-0.4l0,0c0-0.2,0.2-0.4,0.4-0.4c0,0,0,0,0,0h12.2c0.2,0,0.4,0.2,0.4,0.4
	c0,0,0,0,0,0C43.2,37.2,43,37.3,42.8,37.3C42.8,37.3,42.8,37.3,42.8,37.3z"/>
<circle class="st3" cx="10.2" cy="5.2" r="0.8"/>
</svg>
