<?xml version="1.0" encoding="utf-8"?>
<!-- Generator: Adobe Illustrator 26.2.1, SVG Export Plug-In . SVG Version: 6.00 Build 0)  -->
<svg version="1.1" id="Layer_1" xmlns="http://www.w3.org/2000/svg" xmlns:xlink="http://www.w3.org/1999/xlink" x="0px" y="0px"
	 viewBox="0 0 49.7 49.9" style="enable-background:new 0 0 49.7 49.9;" xml:space="preserve">
<style type="text/css">
	.st0{opacity:1.000000e-02;}
	.st1{fill:#FFFFFF;}
	.st2{fill:#E9F5EE;}
	.st3{fill:#006748;}
	.st4{fill:#3F4643;}
	.st5{opacity:0.3;fill:#006748;}
</style>
<g id="Layer_2_00000128476135586020845410000003839665462465300926_">
	<g id="Layer_1-2">
		<g class="st0">
			<rect class="st1" width="49.7" height="49.9"/>
		</g>
		<path class="st2" d="M11.7,31.6c2.2,1.5,3.9,3.6,4.8,6.1c0.9,2.4,2.3,4.6,4.3,6.3c6.2,5.3,15.4,4.6,20.7-1.5S46.1,27,40,21.7
			c-1.9-1.7-3.3-3.9-3.8-6.4c-1.2-5.9-5.7-10.5-11.5-12C16.3,1,7.6,6.1,5.4,14.5C3.7,21,6.2,27.8,11.7,31.6z"/>
		<circle class="st3" cx="8" cy="36.8" r="1.3"/>
		<path class="st4" d="M17,42.3c-1.1,0-2.1-0.4-2.9-1.2c-0.8-0.8-1.2-1.8-1.2-2.9c0-4,3.3-7.3,7.3-7.3h1.2c0.2,0,0.4,0.1,0.4,0.3
			c0,0.2-0.1,0.4-0.3,0.4c0,0-0.1,0-0.1,0h-1.2c-3.6,0-6.6,2.9-6.6,6.6c0,0.9,0.4,1.7,1,2.3c0.6,0.6,1.4,1,2.3,1l0,0l26.2-0.1l0,0
			c0.2,0,0.3,0.2,0.3,0.4c0,0.2-0.2,0.3-0.3,0.3L17,42.3z"/>
		<path class="st1" d="M38.6,35.4H16.7c-0.5,0-0.8-0.3-0.9-0.8l-2.5-19.9h35c0.4,0,0.7,0.3,0.7,0.7c0,0.1,0,0.2,0,0.2l-4.9,15.7
			C43.4,33.8,41.1,35.4,38.6,35.4z"/>
		<path class="st3" d="M37.6,35.4h-21c-0.4,0-0.8-0.4-0.9-0.8l-2.4-19.9h33.6c0.4,0,0.7,0.3,0.7,0.7c0,0.1,0,0.1,0,0.2l-4.7,15.7
			C42.2,33.7,40.1,35.4,37.6,35.4z"/>
		<path class="st4" d="M30.1,35.5H16.6c-0.6,0-1.2-0.5-1.3-1.1l-2.5-19.9c0-0.1,0-0.2,0.1-0.3c0.1-0.1,0.2-0.1,0.3-0.1H30
			c0.2,0,0.4,0.1,0.4,0.3c0,0.2-0.1,0.4-0.3,0.4c0,0-0.1,0-0.1,0H13.7l2.4,19.5c0,0.3,0.3,0.5,0.5,0.5h13.5c0.2,0,0.4,0.2,0.4,0.4
			c0,0,0,0,0,0C30.5,35.3,30.4,35.5,30.1,35.5C30.2,35.5,30.1,35.5,30.1,35.5z"/>
		<path class="st4" d="M38.5,35.5h-6c-0.2,0-0.4-0.2-0.4-0.4c0-0.2,0.2-0.4,0.4-0.4h6c2.4,0,4.5-1.5,5.2-3.8l4.9-15.7
			c0-0.1,0-0.2,0-0.3c-0.1-0.1-0.2-0.1-0.3-0.1H33.5c-0.2,0-0.3-0.2-0.3-0.4c0-0.2,0.2-0.3,0.3-0.3h14.8c0.6,0,1.1,0.5,1.1,1.1
			c0,0.1,0,0.2-0.1,0.3l-4.8,15.7C43.7,33.7,41.2,35.5,38.5,35.5z"/>
		<path class="st4" d="M15.1,29.4c-0.2,0-0.4-0.1-0.4-0.3l-2-15.9c0-2.1-1.7-3.9-3.9-3.9c0,0,0,0,0,0H4.7C4.4,9.2,4.3,9,4.3,8.8
			c0-0.2,0.2-0.3,0.3-0.3h4.2c2.6,0,4.6,2.1,4.6,4.6l2,15.9C15.5,29.2,15.4,29.4,15.1,29.4C15.2,29.4,15.2,29.4,15.1,29.4L15.1,29.4
			z"/>
		<circle class="st1" cx="37.5" cy="42.4" r="3.6"/>
		<path class="st4" d="M37.5,46.4c-2.2,0-4-1.8-4-4s1.8-4,4-4s4,1.8,4,4S39.7,46.4,37.5,46.4z M37.5,39.2c-1.8,0-3.2,1.4-3.2,3.2
			c0,1.8,1.4,3.2,3.2,3.2c1.8,0,3.2-1.4,3.2-3.2c0,0,0,0,0,0C40.7,40.7,39.3,39.2,37.5,39.2z"/>
		<circle class="st1" cx="22.3" cy="42.4" r="3.6"/>
		<path class="st4" d="M22.3,46.4c-2.2,0-4-1.8-4-4s1.8-4,4-4s4,1.8,4,4S24.5,46.4,22.3,46.4z M22.3,39.2c-1.8,0-3.2,1.4-3.2,3.2
			c0,1.8,1.4,3.2,3.2,3.2c1.8,0,3.2-1.4,3.2-3.2l0,0C25.6,40.6,24.1,39.2,22.3,39.2z"/>
		<path class="st1" d="M40.8,22.6H19.2c-0.2,0-0.4-0.1-0.4-0.3c0-0.2,0.1-0.4,0.3-0.4c0,0,0.1,0,0.1,0h21.6c0.2,0,0.3,0.2,0.3,0.4
			C41.1,22.4,41,22.5,40.8,22.6z"/>
		<path class="st1" d="M36.2,27.5H23.8c-0.2,0-0.3-0.2-0.3-0.4c0-0.2,0.2-0.3,0.3-0.3h12.4c0.2,0,0.3,0.2,0.3,0.4
			C36.5,27.4,36.4,27.5,36.2,27.5z"/>
		<circle class="st5" cx="37.5" cy="42.4" r="2.1"/>
		<circle class="st5" cx="22.4" cy="42.5" r="2.1"/>
		<path class="st3" d="M43,12L43,12c-0.1,0-0.3-0.1-0.3-0.2c-0.6-1.1-1.5-2-2.6-2.6c-0.2-0.1-0.3-0.3-0.2-0.5c0-0.1,0.1-0.1,0.2-0.2
			c1.1-0.6,2-1.5,2.6-2.6c0.1-0.2,0.4-0.2,0.5-0.1c0,0,0.1,0.1,0.1,0.1C44,7,44.9,7.9,46,8.5c0.1,0.1,0.2,0.2,0.2,0.3
			c0,0.1-0.1,0.3-0.2,0.3c-1.1,0.6-2,1.5-2.7,2.6C43.3,11.9,43.2,12,43,12z M41,8.8c0.8,0.5,1.5,1.2,2.1,2.1
			c0.5-0.8,1.2-1.5,2.1-2.1c-0.8-0.5-1.5-1.3-2.1-2.1C42.5,7.6,41.8,8.3,41,8.8z"/>
		<circle class="st3" cx="23.2" cy="6.4" r="0.8"/>
	</g>
</g>
</svg>
